<?xml version="1.0" encoding="UTF-8" standalone="no"?>
<!-- Created with Inkscape (http://www.inkscape.org/) -->

<svg
   width="64.950264mm"
   height="19.441935mm"
   viewBox="0 0 64.950264 19.441934"
   version="1.1"
   id="svg5"
   inkscape:version="1.1.2 (b8e25be8, 2022-02-05)"
   sodipodi:docname="vaux-logo.svg"
   inkscape:export-filename="/Users/brandon/projects/bytetrail/vaux/images/vaux-logo.png"
   inkscape:export-xdpi="96"
   inkscape:export-ydpi="96"
   xmlns:inkscape="http://www.inkscape.org/namespaces/inkscape"
   xmlns:sodipodi="http://sodipodi.sourceforge.net/DTD/sodipodi-0.dtd"
   xmlns:xlink="http://www.w3.org/1999/xlink"
   xmlns="http://www.w3.org/2000/svg"
   xmlns:svg="http://www.w3.org/2000/svg">
  <sodipodi:namedview
     id="namedview7"
     pagecolor="#ffffff"
     bordercolor="#666666"
     borderopacity="1.0"
     inkscape:pageshadow="2"
     inkscape:pageopacity="0.0"
     inkscape:pagecheckerboard="0"
     inkscape:document-units="mm"
     showgrid="false"
     inkscape:zoom="2"
     inkscape:cx="44.5"
     inkscape:cy="144.75"
     inkscape:window-width="1691"
     inkscape:window-height="969"
     inkscape:window-x="597"
     inkscape:window-y="133"
     inkscape:window-maximized="0"
     inkscape:current-layer="layer1"
     inkscape:snap-nodes="false"
     inkscape:snap-bbox="true"
     inkscape:snap-global="true"
     fit-margin-top="0"
     fit-margin-left="0"
     fit-margin-right="0"
     fit-margin-bottom="0" />
  <defs
     id="defs2">
    <linearGradient
       inkscape:collect="always"
       id="linearGradient5666">
      <stop
         style="stop-color:#1a7ccd;stop-opacity:1;"
         offset="0"
         id="stop5662" />
      <stop
         style="stop-color:#1a7ccd;stop-opacity:0;"
         offset="1"
         id="stop5664" />
    </linearGradient>
    <rect
       x="-321"
       y="-31"
       width="184"
       height="102"
       id="rect1311" />
    <linearGradient
       inkscape:collect="always"
       xlink:href="#linearGradient5666"
       id="linearGradient5668"
       x1="65.556419"
       y1="95.792831"
       x2="65.424126"
       y2="68.540749"
       gradientUnits="userSpaceOnUse" />
  </defs>
  <g
     inkscape:label="Layer 1"
     inkscape:groupmode="layer"
     id="layer1"
     transform="translate(-24.355581,-76.42012)">
    <rect
       style="mix-blend-mode:normal;fill:url(#linearGradient5668);fill-opacity:1;stroke:none;stroke-width:1.20668;stroke-linecap:round;stroke-miterlimit:4;stroke-dasharray:none;stroke-opacity:1"
       id="rect2615"
       width="64.950264"
       height="19.441935"
       x="24.355581"
       y="76.42012"
       ry="0" />
    <path
       style="mix-blend-mode:normal;fill:#dbdbdb;fill-opacity:1;stroke:none;stroke-width:0.25;stroke-linecap:round;stroke-linejoin:miter;stroke-miterlimit:4;stroke-dasharray:none;stroke-opacity:1"
       d="m 36.339218,84.23336 c 0,0 -0.126715,-0.937699 -0.133052,-1.545935 -0.0063,-0.608235 0.0887,-0.918689 0.177403,-1.286165 0.06696,-0.277424 0.30863,-0.827098 0.494191,-1.045405 0.107709,-0.126716 0.386484,-0.266104 0.386484,-0.266104 0,0 0.0063,0.823653 0.03801,1.488912 0.03168,0.665257 0.202746,1.463567 0.576557,2.344243 0.781082,0.023 1.635964,-0.09241 1.635964,-0.09241 l 0.215044,0.0672 0.113088,0.494061 -0.133052,0.164729 c 0,0 -0.240759,0.038 -0.829988,0.291447 -0.589229,0.253431 -0.728616,0.380146 -0.728616,0.380146 0,0 -0.05702,0.367478 0.01267,0.696939 0.06969,0.329459 0.116389,0.554363 0.266104,1.045406 0.161197,0.528702 0.205509,0.736246 0.430833,1.292501 0.21556,0.532149 0.43717,1.121436 0.43717,1.121436 0,0 -0.253431,-0.01269 -0.468848,-0.120381 -0.202746,-0.133052 -0.297783,-0.209068 -0.975713,-0.9377 -0.6019,-0.918689 -0.956704,-1.697988 -1.134106,-2.173174 -0.0957,-0.256334 -0.0887,-0.772968 -0.0887,-0.772968 0,0 -0.734952,-0.05069 -0.912355,-0.06336 -0.177402,-0.01266 -0.373811,-0.06969 -0.373811,-0.06969 0,0 0.06735,-0.252235 0.234424,-0.430833 0.183738,-0.196409 0.449841,-0.380146 0.449841,-0.380146 z"
       id="path923"
       sodipodi:nodetypes="cscssscccccccssscccscccscc"
       inkscape:transform-center-x="0.40089262"
       inkscape:transform-center-y="0.29289352" />
    <path
       style="mix-blend-mode:normal;fill:#dbdbdb;fill-opacity:1;stroke:none;stroke-width:0.25;stroke-linecap:round;stroke-linejoin:miter;stroke-miterlimit:4;stroke-dasharray:none;stroke-opacity:1"
       d="m 33.187367,87.587252 c 0,0 -0.126715,-0.9377 -0.133051,-1.545935 -0.0063,-0.608236 0.0887,-0.91869 0.177402,-1.286165 0.06696,-0.277425 0.308631,-0.827098 0.494192,-1.045405 0.107708,-0.126716 0.386483,-0.266104 0.386483,-0.266104 0,0 0.0063,0.823652 0.03802,1.488911 0.03168,0.665257 0.202745,1.463568 0.576557,2.344243 0.781081,0.02299 1.635963,-0.09241 1.635963,-0.09241 l 0.215044,0.0672 0.113089,0.494061 -0.133052,0.164729 c 0,0 -0.24076,0.038 -0.829989,0.291448 -0.589228,0.25343 -0.728616,0.380146 -0.728616,0.380146 0,0 -0.05702,0.367478 0.01267,0.696939 0.06969,0.329459 0.11639,0.554363 0.266104,1.045405 0.161198,0.528703 0.20551,0.736247 0.430834,1.292502 0.215559,0.532148 0.43717,1.121435 0.43717,1.121435 0,0 -0.253432,-0.01269 -0.468849,-0.120381 -0.202746,-0.133052 -0.297783,-0.209068 -0.975712,-0.937699 -0.601901,-0.91869 -0.956705,-1.697989 -1.134107,-2.173175 -0.0957,-0.256334 -0.0887,-0.772967 -0.0887,-0.772967 0,0 -0.734952,-0.05069 -0.912354,-0.06336 -0.177403,-0.01266 -0.373812,-0.06969 -0.373812,-0.06969 0,0 0.06735,-0.252236 0.234424,-0.430833 0.183738,-0.19641 0.449841,-0.380146 0.449841,-0.380146 z"
       id="path923-7"
       sodipodi:nodetypes="cscssscccccccssscccscccscc"
       inkscape:transform-center-x="3.5527433"
       inkscape:transform-center-y="2.9755409" />
    <path
       style="mix-blend-mode:normal;fill:#dbdbdb;fill-opacity:1;stroke:none;stroke-width:0.25;stroke-linecap:round;stroke-linejoin:miter;stroke-miterlimit:4;stroke-dasharray:none;stroke-opacity:1"
       d="m 29.154626,84.646433 c 0,0 -0.126715,-0.937697 -0.133052,-1.545935 -0.0063,-0.608238 0.0887,-0.91869 0.177402,-1.286168 0.06697,-0.277424 0.308631,-0.827098 0.494192,-1.045405 0.107709,-0.126715 0.386484,-0.266104 0.386484,-0.266104 0,0 0.0063,0.823655 0.03801,1.488914 0.03168,0.665257 0.202746,1.463568 0.576557,2.344244 0.781082,0.023 1.635962,-0.09241 1.635962,-0.09241 l 0.215046,0.0672 0.113088,0.494059 -0.133052,0.164732 c 0,0 -0.24076,0.038 -0.829988,0.291447 -0.589229,0.253428 -0.728617,0.380143 -0.728617,0.380143 0,0 -0.05702,0.367478 0.01267,0.696939 0.06969,0.329459 0.116389,0.554363 0.266103,1.045406 0.161198,0.528702 0.20551,0.736246 0.430834,1.292501 0.21556,0.532149 0.437171,1.121436 0.437171,1.121436 0,0 -0.253433,-0.01269 -0.46885,-0.120381 -0.202745,-0.133052 -0.297782,-0.209068 -0.975712,-0.9377 -0.6019,-0.918689 -0.956704,-1.697988 -1.134107,-2.173174 -0.0957,-0.256334 -0.0887,-0.772968 -0.0887,-0.772968 0,0 -0.734952,-0.05069 -0.912354,-0.06336 -0.177402,-0.01266 -0.373812,-0.06969 -0.373812,-0.06969 0,0 0.06735,-0.252235 0.234425,-0.430833 0.183738,-0.196409 0.449841,-0.380146 0.449841,-0.380146 z"
       id="path923-9"
       sodipodi:nodetypes="cscssscccccccssscccscccscc"
       inkscape:transform-center-x="7.224046"
       inkscape:transform-center-y="0.29289193" />
    <text
       xml:space="preserve"
       style="font-style:normal;font-weight:normal;font-size:16.9333px;line-height:1.25;font-family:sans-serif;fill:#ffffff;fill-opacity:1;stroke:none;stroke-width:0.264583"
       x="43.728287"
       y="92.353249"
       id="text4407"><tspan
         sodipodi:role="line"
         id="tspan4405"
         style="font-size:16.9333px;fill:#ffffff;fill-opacity:1;stroke-width:0.264583"
         x="43.728287"
         y="92.353249">Vaux</tspan></text>
  </g>
</svg>
